<?xml version="1.0" encoding="UTF-8"?>
<svg id="Layer_2" data-name="Layer 2" xmlns="http://www.w3.org/2000/svg" viewBox="0 0 335.77 67.39">
  <defs>
    <style>
      .cls-1 {
        isolation: isolate;
      }

      .cls-2 {
        fill: none;
        stroke: #fff;
        stroke-miterlimit: 10;
        stroke-width: 5px;
      }

      .cls-3 {
        fill: #fff;
        stroke-width: 0px;
      }
    </style>
  </defs>
  <g id="Layer_1-2" data-name="Layer 1-2">
    <g>
      <g class="cls-1">
        <g class="cls-1">
          <path class="cls-3" d="M55.06,14.97v7.54h-10.23v31.08h-9.41v-31.08h-10.23v-7.54h29.87Z"/>
          <path class="cls-3" d="M79.48,53.58l-8.03-14.58h-2.25v14.58h-9.4V14.97h15.78c3.04,0,5.64.53,7.78,1.6s3.75,2.52,4.81,4.37c1.06,1.85,1.59,3.91,1.59,6.19,0,2.57-.72,4.86-2.17,6.88-1.45,2.02-3.58,3.45-6.41,4.29l8.91,15.29h-10.61ZM69.2,32.35h5.83c1.72,0,3.02-.42,3.88-1.26.86-.84,1.29-2.04,1.29-3.58s-.43-2.62-1.29-3.46c-.86-.84-2.15-1.26-3.88-1.26h-5.83v9.57Z"/>
          <path class="cls-3" d="M119.69,46.76h-14.41l-2.31,6.82h-9.85l13.97-38.61h10.89l13.97,38.61h-9.96l-2.31-6.82ZM117.27,39.5l-4.78-14.13-4.73,14.13h9.52Z"/>
          <path class="cls-3" d="M164.07,33.53c-1.03,1.85-2.6,3.35-4.73,4.48-2.13,1.14-4.77,1.71-7.92,1.71h-5.83v13.86h-9.4V14.97h15.23c3.08,0,5.68.53,7.81,1.6,2.13,1.06,3.72,2.53,4.79,4.4,1.06,1.87,1.59,4.02,1.59,6.44,0,2.24-.51,4.28-1.54,6.13ZM154.72,30.97c.88-.84,1.32-2.03,1.32-3.57s-.44-2.73-1.32-3.58c-.88-.84-2.22-1.26-4.01-1.26h-5.12v9.68h5.12c1.8,0,3.13-.42,4.01-1.27Z"/>
          <path class="cls-3" d="M203.95,14.97v38.61h-9.41v-15.9h-14.63v15.9h-9.41V14.97h9.41v15.12h14.63v-15.12h9.41Z"/>
          <path class="cls-3" d="M218.99,51.44c-3.02-1.69-5.43-4.04-7.21-7.07-1.78-3.02-2.67-6.42-2.67-10.2s.89-7.17,2.67-10.17c1.78-3.01,4.18-5.35,7.21-7.04,3.03-1.69,6.35-2.53,9.98-2.53s6.96.84,9.98,2.53c3.03,1.69,5.41,4.03,7.15,7.04,1.74,3.01,2.61,6.4,2.61,10.17s-.88,7.18-2.64,10.2c-1.76,3.03-4.14,5.38-7.15,7.07-3.01,1.69-6.33,2.53-9.96,2.53s-6.96-.84-9.98-2.53ZM236.37,42.3c1.85-2.05,2.78-4.77,2.78-8.14s-.93-6.13-2.78-8.17c-1.85-2.04-4.32-3.05-7.4-3.05s-5.6,1.01-7.45,3.02c-1.85,2.02-2.78,4.75-2.78,8.2s.93,6.13,2.78,8.17c1.85,2.03,4.34,3.05,7.45,3.05s5.55-1.03,7.4-3.08Z"/>
          <path class="cls-3" d="M263.35,46.32h12.32v7.26h-21.72V14.97h9.4v31.35Z"/>
          <path class="cls-3" d="M307.95,14.97v7.54h-10.23v31.08h-9.41v-31.08h-10.23v-7.54h29.87Z"/>
        </g>
      </g>
      <rect class="cls-2" x="2.5" y="2.5" width="330.77" height="62.39"/>
    </g>
  </g>
</svg>